<svg width="84" height="84" viewBox="0 0 84 84" fill="none" xmlns="http://www.w3.org/2000/svg">
<rect width="84" height="84" fill="#FAF9F9"/>
<path d="M26.0682 63L33.3125 19.3636H48.0355C50.8764 19.3636 53.1634 19.8608 54.8963 20.8551C56.6293 21.8494 57.8224 23.206 58.4759 24.9247C59.1435 26.6435 59.2855 28.5966 58.902 30.7841C58.6037 32.6023 58.0426 34.1577 57.2188 35.4503C56.3949 36.7287 55.3935 37.7727 54.2145 38.5824C53.0497 39.3778 51.7926 39.9531 50.4432 40.3082L50.3793 40.6491C51.7713 40.7486 53.0568 41.2457 54.2358 42.1406C55.4148 43.0213 56.2955 44.2571 56.8778 45.848C57.4744 47.4389 57.5952 49.3423 57.2401 51.5582C56.8707 53.7599 56.0469 55.7273 54.7685 57.4602C53.5043 59.179 51.7713 60.5355 49.5696 61.5298C47.3821 62.5099 44.7259 63 41.6009 63H26.0682ZM30.6491 59.4205H42.1974C45.5639 59.4205 48.1776 58.6747 50.0384 57.1832C51.8991 55.6918 53.0284 53.8168 53.4261 51.5582C53.696 49.8963 53.5398 48.3906 52.9574 47.0412C52.375 45.6776 51.4233 44.598 50.1023 43.8026C48.7813 43.0071 47.1406 42.6094 45.1804 42.6094H33.4616L30.6491 59.4205ZM34.0582 39.0724H45.1591C46.8778 39.0724 48.4403 38.7173 49.8466 38.0071C51.2528 37.2969 52.4176 36.3168 53.3409 35.0668C54.2642 33.8168 54.8537 32.3892 55.1094 30.7841C55.5071 28.4687 55.0739 26.5866 53.8097 25.1378C52.5597 23.6747 50.4361 22.9432 47.4389 22.9432H36.7003L34.0582 39.0724Z" fill="black"/>
</svg>
